<?xml version="1.0" encoding="utf-8"?>
<!-- Generator: Adobe Illustrator 26.1.0, SVG Export Plug-In . SVG Version: 6.00 Build 0)  -->
<svg version="1.1" id="Capa_1" xmlns="http://www.w3.org/2000/svg" xmlns:xlink="http://www.w3.org/1999/xlink" x="0px" y="0px"
	 viewBox="0 0 14 16" style="enable-background:new 0 0 14 16;" xml:space="preserve">
<style type="text/css">
	.st0{fill:rgb(251,140,0);}
</style>
<path class="st0" d="M6,2.1l0.7-0.7c0.3-0.3,0.8-0.3,1.1,0l6.1,6.1c0.3,0.3,0.3,0.8,0,1.1l-6.1,6.1C7.5,15,7,15,6.7,14.7L6,13.9
	c-0.3-0.3-0.3-0.8,0-1.1l3.8-3.6h-9C0.3,9.2,0,8.9,0,8.5v-1c0-0.4,0.3-0.8,0.8-0.8h9L6,3.2C5.7,2.9,5.7,2.4,6,2.1z"/>
</svg>
