<?xml version="1.0" encoding="utf-8"?>
<!-- Generator: Adobe Illustrator 26.1.0, SVG Export Plug-In . SVG Version: 6.00 Build 0)  -->
<svg version="1.1" id="Capa_1" xmlns="http://www.w3.org/2000/svg" xmlns:xlink="http://www.w3.org/1999/xlink" x="0px" y="0px"
	 viewBox="0 0 600 238.7" style="enable-background:new 0 0 600 238.7;" xml:space="preserve">
<style type="text/css">
	.st0{opacity:0.9;fill:#FFFFFF;enable-background:new    ;}
</style>
<path class="st0" d="M535.3,188.4l-3.5,22.8c0,0.3-0.3,0.5-0.6,0.4c-0.1,0-0.3-0.1-0.3-0.2l-52.7-69.2c-0.3-0.3-0.7-0.4-1.1-0.1
	c-0.1,0-0.1,0.1-0.2,0.2l-20.8,30.2c-0.9,1.3-1.4,1.2-1.4-0.4V127c0-0.7-0.3-1.4-0.8-1.8c-13-11.2-25.8-22.4-38.4-33.6
	c-1.9-1.6-3.4-3.4-4.6-5.4c-7.3-11.6-14.6-23.3-22-35.3c-0.2-0.3-0.5-0.4-0.8-0.2c-0.1,0.1-0.2,0.1-0.2,0.2l-44.3,85.2
	c-0.2,0.4-0.7,0.6-1.2,0.5l-24.9-8.8c-0.5-0.2-0.8,0-1,0.4l-25,57.4c-0.2,0.4-0.7,0.7-1.2,0.6l-46-9.7c-0.9-0.2-1.9,0-2.6,0.5
	c-30.3,19.2-60.9,38.7-91.7,58.3c-0.3,0.2-0.7,0.4-1,0.4c-0.6,0.1-0.7-0.1-0.4-0.6c8.4-13.8,16.4-26.8,23.8-39.1
	c0.8-1.3,1.7-2.4,2.8-3.3c27.8-23,56.1-46.5,84.8-70.3c0.5-0.4,1.1-0.5,1.6-0.3l21.6,7c0.7,0.2,1.4,0,1.7-0.6l15.1-22.1
	c0.3-0.4,0.2-0.9-0.2-1.3c-11.8-10.2-22.8-19.8-33-28.8c-1.6-1.4-3-3-4.1-4.8c-6.8-10.9-14.2-22.8-22.2-35.8
	c-0.1-0.2-0.4-0.3-0.6-0.2c-0.1,0-0.1,0.1-0.2,0.2l-44.5,85.4c-0.2,0.4-0.7,0.6-1.1,0.4l-25.1-8.9c-0.3-0.1-0.7,0-0.8,0.4L143,170.7
	c-0.2,0.4-0.5,0.6-1,0.5l-46.4-9.6c-0.7-0.1-1.4,0-2,0.4L1.3,220.6c-1.4,0.9-1.6,0.6-0.8-0.8c7.1-11.5,14.3-23.4,21.6-35.7
	c1.7-2.9,3.8-5.4,6.2-7.4c27.5-22.9,55.2-45.9,83.2-69.1c0.5-0.4,1.2-0.6,1.9-0.4l21.7,7c0.5,0.2,1.1,0,1.4-0.5
	c16.3-24,32.7-48,49.1-72.2c1.3-1.9,3.3-3.7,5.5-5.1c18.6-12.1,37.3-24.2,55.9-36.3c0.4-0.2,0.9-0.2,1.2,0.1
	c20.2,19.4,40.8,39.3,61.9,59.6c4.5,4.3,9.6,5.9,15.1,8.1c0.5,0.2,0.9,0.1,1.2-0.4l8.1-11.9c1-1.4,2.2-2.7,3.7-3.6l57.2-37.1
	c0.5-0.3,0.9-0.3,1.3,0.1c20,19.3,40.5,39,61.5,59.3c2.5,2.4,5.5,4.3,9.1,5.8c15.2,6.4,30,12.6,44.4,18.8c1.5,0.7,2.7,1.7,3.5,3
	c28,44.9,56,89.8,84,134.7c1.5,2.4,1.1,2.7-1,0.9l-62.3-49.8c-0.1-0.1-0.3-0.1-0.4,0C535.3,188.3,535.3,188.3,535.3,188.4z"/>
</svg>
