<?xml version="1.0" encoding="utf-8"?>
<!-- Generator: Adobe Illustrator 26.1.0, SVG Export Plug-In . SVG Version: 6.00 Build 0)  -->
<svg version="1.1" id="Capa_1" xmlns="http://www.w3.org/2000/svg" xmlns:xlink="http://www.w3.org/1999/xlink" x="0px" y="0px"
	 viewBox="0 0 300 300" style="enable-background:new 0 0 300 300;" xml:space="preserve">
<style type="text/css">
	.st0{fill:#DAB33F;}
	.st1{fill:#B82436;}
	.st2{fill:#CC9531;}
	.st3{fill:#FB8C00;}
</style>
<path class="st0" d="M142.2,16.8l9.5-16.4c0.3-0.5,0.9-0.6,1.4-0.3c0.2,0.2,0.3,0.2,0.3,0.3l9.5,16.4c0.3,0.5,0.2,1.1-0.3,1.4
	c-0.2,0.2-0.3,0.2-0.5,0.2h-18.9c-0.6,0-1.1-0.5-1.1-0.9C142,17.1,142.2,17,142.2,16.8z"/>
<path class="st1" d="M218.8,94.4l-6.9,5.6l-19.7-33.2c-0.5-0.8-1.1-0.9-1.8-0.5c-26,19.1-55.3,27.2-87.8,24.3
	c-0.9,0-1.4,0.3-1.4,1.2c-1.4,16.8-0.9,32.2,1.2,46c1.2,7.4,3.2,16.8,5.9,28.6l-8,3.3c-6.6-20.1-8.9-40.9-6.8-62.2
	c0.6-5.6,1.2-11.1,1.8-16.7c0.2-0.8-0.3-1.2-1.1-1.4l-15-2.6c-3.3-0.6-3.3-1.1,0-1.5c5.1-0.8,10.4-0.9,15.9-0.6
	c1.4,0,2.6-0.9,2.9-2.3c1.4-6.6,3.5-12.9,6.3-18.6c0.9-1.8,1.2-1.7,0.9,0.3c-1.1,6.6-2.1,12.9-3.3,19.1c-0.2,0.8,0.3,1.5,1.1,1.7
	c0.2,0,0.2,0,0.3,0c31.3-1.7,58.9-9.8,82.8-24.6c0.5-0.3,0.6-0.9,0.3-1.4c0,0,0,0,0-0.2c-8-10.1-16.4-19.2-25.6-27.8
	c-0.2-0.2-0.2-0.3,0-0.6l0.5-0.5c0.3-0.3,0.8-0.5,1.1-0.2c10.7,6.9,20.3,15.3,28.6,24.9c1.1,1.2,2.9,1.4,4.1,0.3l17.4-13.8
	c2.9-2.3,3.3-2,1.2,1.1c-4.2,6.3-9.6,12-16.2,17.3c-0.6,0.5-0.8,1.1-0.2,1.7C206.5,72.6,213.6,83.6,218.8,94.4z"/>
<path class="st1" d="M56.8,175.2c-11.4-3.3-18.3-10.7-20.9-22.1c-1.8-8-3.2-13.5-4.4-16.7c3.6-29.2,15.9-53.7,37-73.3
	c22.7-21.3,50.6-31.3,83.6-29.9c0.5,0,0.6,0.3,0.8,0.6c0.2,0.5,0,0.8-0.6,0.9c-39.5,5.6-74.1,29.9-90.2,66.7
	C52.3,124.1,50.5,148.6,56.8,175.2z"/>
<path class="st2" d="M248.9,62.7c-3.2-0.9-6-2.3-8.6-4.1c-4.2-2.9-3.8-4.1,1.4-3.5l13.2,1.5c0.9,0.2,1.7-0.2,2.3-0.8l7.2-6.8
	c0.6-0.6,1.7-0.6,2.3,0c0.3,0.3,0.5,0.6,0.5,0.9c0.6,4.1-3,6.9-5.6,9.5c-0.9,0.9-1.4,2.1-1.1,3.5l2.1,13.5c0.2,1.1-0.2,1.8-1.2,2.3
	c-0.6,0.3-1.1,0.3-1.5,0c-0.3-0.2-0.5-0.5-0.6-0.8c-1.2-3-2.6-6.2-4.4-9.3c-0.3-0.6-1.2-0.9-1.8-0.5c-0.2,0-0.2,0.2-0.3,0.3
	l-7.4,7.4c-0.6,0.6-0.9,1.4-0.9,2.3c0,1.5,0,3,0,4.5c0,0.6-0.3,1.1-0.9,1.4c-0.8,0.3-1.2,0.2-1.7-0.6c-1.4-3-3.5-5.1-6.5-6.6
	c-2.7-1.4-2.6-2.3,0.3-2.7c4.8-0.9,9.3-4.2,13.2-9.8c0.3-0.5,0.2-1.1-0.3-1.4C249,62.7,248.9,62.7,248.9,62.7z"/>
<path class="st3" d="M220.6,98.3l-6.3,6.9c-12.6,13.5-27.5,31.3-44.3,53.4c-14.1,18.5-25.1,36.7-33.1,54.6c-0.5,0.9-0.6,2.3-0.8,3.9
	c-0.8,0.8-1.2,1.7-1.1,2.6c-4.7,10.2-5.6,19.4-2.9,27.8c2.9,8.4,8.1,14,15.9,16.4c6.2,2,15.2,4.1,26.9,6.2
	C94.5,284.7,21.9,218.7,31.2,136.5c1.2,3.2,2.7,8.7,4.4,16.7c2.6,11.4,9.5,18.8,20.9,22.1c4.7,1.7,9.8,2.4,15.3,2
	c9-0.8,18.3-3.2,28.3-7.4l8-3.3c6-2.3,11.9-5,17.6-8.1c30.5-16.8,59.1-36.4,86-58.5l6.9-5.6c5.1-4.7,10.2-8.7,15.3-12.5
	c0.2-0.2,0.5,0,0.8,0.2c0.3,0.3,0.5,0.6,0,1.1L220.6,98.3z"/>
<path class="st1" d="M220.6,98.3c12.5,26.3,17.3,53.7,14.3,82.1c-0.3,2.4,0.6,2.9,2.4,1.2c3.2-2.7,6.2-5.6,9.5-8.4
	c5.6-5,6.2-4.4,2,1.7c-3.8,5.4-8.4,10.8-14,16.5c-2.4,2.6-5.3,4.8-8.4,6.8c-3.3,2.1-6.6,4.1-9.9,6c-23.7,14.1-49.7,19.8-78.2,17
	c-0.8,0-1.4-0.3-2-0.9c-0.3-0.3-0.8-0.6-1.1-0.8c-0.2-0.9,0.3-1.8,1.1-2.6c1.8-0.8,3.8-1.7,5.7-1.7c32.2-1.7,60.7-10.5,85.5-26.9
	c1.8-1.2,2.7-2.9,2.7-4.8c-0.2-27.1-5.6-53.2-15.9-78.5L220.6,98.3z"/>
<path class="st1" d="M175.2,270.1c-11.7-2.1-20.7-4.2-26.9-6.2c-7.8-2.4-13.1-8-15.9-16.4c29.5,6,55.8,2.3,79.1-11.3
	c31.4-18.3,50.3-46.9,56.8-85.7c0-0.2,0.2-0.3,0.2-0.5c0.2-0.2,0.3-0.2,0.6,0c0.2,0.2,0.2,0.2,0.2,0.5c1.2,16.5-0.3,30.5-4.4,41.9
	C249.8,234.8,219.9,260.6,175.2,270.1z"/>
<path class="st0" d="M162.9,282.9l-9.5,16.7c-0.3,0.5-0.9,0.6-1.4,0.3c-0.2-0.2-0.3-0.2-0.3-0.3l-9.5-16.7c-0.3-0.5-0.2-1.1,0.5-1.4
	c0.2-0.2,0.3-0.2,0.5-0.2h18.9c0.6,0,1.1,0.5,1.1,1.1C163.1,282.6,162.9,282.7,162.9,282.9z"/>
</svg>
